<?xml version="1.0" encoding="utf-8"?>
<!-- Generator: Adobe Illustrator 25.2.0, SVG Export Plug-In . SVG Version: 6.00 Build 0)  -->
<svg version="1.1"
	 id="Layer_1" xmlns:cc="http://creativecommons.org/ns#" xmlns:dc="http://purl.org/dc/elements/1.1/" xmlns:rdf="http://www.w3.org/1999/02/22-rdf-syntax-ns#" xmlns:svg="http://www.w3.org/2000/svg"
	 xmlns="http://www.w3.org/2000/svg" xmlns:xlink="http://www.w3.org/1999/xlink" x="0px" y="0px" viewBox="0 0 93.3 93.3"
	 style="enable-background:new 0 0 93.3 93.3;" xml:space="preserve">
<style type="text/css">
	.st0{fill:#FFFFFF;}
</style>
<path id="path2" class="st0" d="M51.4,93L51.4,93c10.7-1.1,20.6-5.8,28.2-13.4l0,0c8.4-8.4,13.7-20.1,13.7-32.9s-5.2-24.5-13.6-32.9
	v-0.1C72,6,62.2,1.4,51.5,0.3l0,0c-0.7-0.1-1.4-0.1-2.1-0.2c-0.1,0-0.2,0-0.3,0c-0.8,0-1.6-0.1-2.4-0.1l0,0l0,0
	C32.4,0,19.5,6.5,11,16.7c-0.1,0.1-0.2,0.2-0.3,0.3l-0.1,0.1c-1.4,1.7-2.7,3.5-3.8,5.4c0,0-0.1,0.1-0.1,0.2C3.2,28.4,1,35,0.3,42
	c0,0.3,0,0.6-0.1,0.9C0.1,44.2,0,45.4,0,46.7l0,0l0,0c0,25.7,20.9,46.6,46.6,46.6l0,0l0,0c0.8,0,1.6,0,2.4-0.1c0.1,0,0.2,0,0.3,0
	C50,93.2,50.7,93.1,51.4,93z M52.2,83.9c-0.5,0.1-1,0.1-1.5,0.2c-0.2,0-0.3,0-0.5,0c-0.4,0-0.9,0.1-1.3,0.1c-0.2,0-0.3,0-0.5,0
	c-0.6,0-1.2,0-1.8,0C25.8,84.2,9,67.3,9,46.6c0-1.8,0.1-3.6,0.4-5.3c0-0.1,0-0.3,0.1-0.4c0-0.3,0.1-0.5,0.1-0.8
	c0.1-0.4,0.1-0.7,0.2-1.1c0.5-2.7,1.4-5.2,2.5-7.7C18.2,18.1,31.4,8.9,46.7,8.9c0.6,0,1.2,0,1.8,0c0.2,0,0.3,0,0.5,0
	c0.5,0,0.9,0.1,1.4,0.1c0.2,0,0.3,0,0.5,0c0.5,0.1,1,0.1,1.5,0.2c0.1,0,0.2,0,0.2,0c6.5,1,12.5,3.7,17.4,7.6L40.4,46.4L70,76
	C65,79.9,58.7,82.9,52.2,83.9C52,84.1,52.3,83.9,52.2,83.9z M76.2,69.9L53,46.7l23.2-23.2c5,6.4,8.1,14.5,8.1,23.2
	S81.3,63.5,76.2,69.9z"/>
</svg>
